HIERARCHY
ROOT SpineBase
{
  OFFSET 0.000000 0.000000 0.000000
  CHANNELS 6 Xposition Yposition Zposition Zrotation Xrotation Yrotation
  JOINT SpineMid
  {
    OFFSET -0.000000 29.694045 0.000000
    CHANNELS 3 Zrotation Xrotation Yrotation
    JOINT SpineShoulder
    {
      OFFSET -0.021198 22.025689 -0.823217
      CHANNELS 3 Zrotation Xrotation Yrotation
      JOINT Neck
      {
        OFFSET -0.012821 7.283981 -0.608852
        CHANNELS 3 Zrotation Xrotation Yrotation
        JOINT Head
        {
          OFFSET 4.810491 12.363885 1.317794
          CHANNELS 3 Zrotation Xrotation Yrotation
          End Site
          {
            OFFSET 0 0 0
          }
        }
      }
      JOINT ShoulderLeft
      {
        OFFSET -12.062995 -3.525311 -9.728770
        CHANNELS 3 Zrotation Xrotation Yrotation
        JOINT ElbowLeft
        {
          OFFSET -6.366633 -22.538261 -0.919795
          CHANNELS 3 Zrotation Xrotation Yrotation
          JOINT WristLeft
          {
            OFFSET -0.106628 -19.706756 -5.419369
            CHANNELS 3 Zrotation Xrotation Yrotation
            JOINT HandLeft
            {
              OFFSET 0.469266 -7.126337 -0.671487
              CHANNELS 3 Zrotation Xrotation Yrotation
              JOINT HandTipLeft
              {
                OFFSET -0.267751 -6.394469 -1.005944
                CHANNELS 3 Zrotation Xrotation Yrotation
                End Site
                {
                  OFFSET 0 0 0
                }
              }
              JOINT ThumbLeft
              {
                OFFSET 2.855051 0.317500 -0.976524
                CHANNELS 3 Zrotation Xrotation Yrotation
                End Site
                {
                  OFFSET 0 0 0
                }
              }
            }
          }
        }
      }
      JOINT ShoulderRight
      {
        OFFSET 14.308114 -4.967976 4.486221
        CHANNELS 3 Zrotation Xrotation Yrotation
        JOINT ElbowRight
        {
          OFFSET 1.460210 -23.980514 6.212195
          CHANNELS 3 Zrotation Xrotation Yrotation
          JOINT WristRight
          {
            OFFSET 0.790872 -18.303778 -3.459005
            CHANNELS 3 Zrotation Xrotation Yrotation
            JOINT HandRight
            {
              OFFSET -0.907888 -5.368089 -1.534137
              CHANNELS 3 Zrotation Xrotation Yrotation
              JOINT HandTipRight
              {
                OFFSET 0.166835 -7.395921 -0.352338
                CHANNELS 3 Zrotation Xrotation Yrotation
                End Site
                {
                  OFFSET 0 0 0
                }
              }
              JOINT ThumbRight
              {
                OFFSET 1.232542 -1.779477 -1.448528
                CHANNELS 3 Zrotation Xrotation Yrotation
                End Site
                {
                  OFFSET 0 0 0
                }
              }
            }
          }
        }
      }
    }
  }
  JOINT HipLeft
  {
    OFFSET -5.552178 1.343832 -6.480119
    CHANNELS 3 Zrotation Xrotation Yrotation
    JOINT KneeLeft
    {
      OFFSET -10.902611 -26.088594 4.527937
      CHANNELS 3 Zrotation Xrotation Yrotation
      JOINT AnkleLeft
      {
        OFFSET -6.536575 -33.866827 7.891665
        CHANNELS 3 Zrotation Xrotation Yrotation
        JOINT FootLeft
        {
          OFFSET 3.946664 -6.134645 0.278002
          CHANNELS 3 Zrotation Xrotation Yrotation
          End Site
          {
            OFFSET 0 0 0
          }
        }
      }
    }
  }
  JOINT HipRight
  {
    OFFSET 5.385915 0.170459 -0.350074
    CHANNELS 3 Zrotation Xrotation Yrotation
    JOINT KneeRight
    {
      OFFSET -8.483284 -31.542135 9.848753
      CHANNELS 3 Zrotation Xrotation Yrotation
      JOINT AnkleRight
      {
        OFFSET -6.681888 -27.336393 6.074283
        CHANNELS 3 Zrotation Xrotation Yrotation
        JOINT FootRight
        {
          OFFSET 4.016541 -3.978683 -11.323734
          CHANNELS 3 Zrotation Xrotation Yrotation
          End Site
          {
            OFFSET 0 0 0
          }
        }
      }
    }
  }
}
MOTION
Frames: 9
Frame Time: 0.033333
7.412389 66.473532 335.124060 -2.887876 2.983901 -29.275850 -0.021931 0.055707 29.248047 -0.086060 0.122881 -0.137117 9.620149 1.789186 -2.264236 0.000000 0.000000 0.000000 27.890668 29.145638 -16.755951 90.833386 6.517723 2.257314 8.160855 21.148697 1.740479 8.263823 8.215928 -40.783076 0.000000 0.000000 0.000000 0.000000 0.000000 0.000000 29.204574 31.575808 2.875596 -152.163381 77.605546 104.518656 24.227800 0.949445 0.086833 2.268526 33.784938 66.035138 0.000000 0.000000 0.000000 0.000000 0.000000 0.000000 10.304450 -0.898816 31.720827 -5.539606 3.070386 -2.064700 -1.319700 -2.291288 -1.570590 0.000000 0.000000 0.000000 9.859224 2.951226 31.382462 -9.893820 -5.289880 -1.612995 -0.480831 1.444223 5.174514 0.000000 0.000000 0.000000
7.412128 66.494389 335.021345 -2.974621 3.031850 -29.505072 -0.023558 0.074655 29.478616 -0.070723 0.122808 -0.138994 9.699088 1.706094 -2.240755 0.000000 0.000000 0.000000 27.720571 29.120659 -16.659452 90.967723 7.445530 0.898672 6.075383 19.351843 4.956038 9.004963 8.582579 -40.445009 0.000000 0.000000 0.000000 0.000000 0.000000 0.000000 29.480568 32.146438 2.799590 -148.133865 78.929504 100.688086 26.279440 3.132175 1.999333 -6.419195 28.808657 45.701232 0.000000 0.000000 0.000000 0.000000 0.000000 0.000000 10.633162 -0.183518 31.814596 -6.649816 1.472000 -1.851624 -0.648827 -1.009400 -1.558686 0.000000 0.000000 0.000000 10.056128 2.848945 31.674814 -9.921531 -5.114202 -1.647477 0.327463 3.162624 4.321593 0.000000 0.000000 0.000000
7.434863 66.512997 334.961241 -2.998995 3.028397 -29.486534 -0.029833 0.098807 29.460809 -0.043162 0.119718 -0.136857 9.452117 1.688606 -2.215259 0.000000 0.000000 0.000000 27.493967 29.113683 -16.584173 90.691873 8.039135 0.040409 5.276076 20.293509 3.686433 9.391489 0.920675 -21.727934 0.000000 0.000000 0.000000 0.000000 0.000000 0.000000 29.707773 32.201128 2.794295 -150.803229 80.712158 105.244794 27.246430 6.772462 2.745688 -6.887956 24.150716 42.073753 0.000000 0.000000 0.000000 0.000000 0.000000 0.000000 10.702791 -0.025825 31.765216 -6.927344 1.231529 -1.836626 -0.342801 -0.842307 -1.528100 0.000000 0.000000 0.000000 10.221052 2.841090 31.715387 -10.154644 -5.049154 -1.719223 1.495972 5.413928 3.282075 0.000000 0.000000 0.000000
7.485395 66.544716 334.910333 -2.987381 3.006187 -29.543656 -0.040239 0.097440 29.516943 -0.025375 0.111536 -0.135046 9.220677 1.756598 -2.218419 0.000000 0.000000 0.000000 27.471603 29.393045 -16.737973 90.208183 9.475009 -1.601005 5.047015 20.148464 4.426169 9.198625 2.658393 -26.023703 0.000000 0.000000 0.000000 0.000000 0.000000 0.000000 29.526661 31.954106 2.829647 -150.168737 83.046442 107.365855 29.261867 13.575400 3.915335 -0.801911 16.072716 50.830622 0.000000 0.000000 0.000000 0.000000 0.000000 0.000000 10.635620 -0.533290 31.977672 -6.344834 1.983575 -1.957658 -0.878061 -1.180997 -1.555908 0.000000 0.000000 0.000000 10.325609 2.938632 31.810373 -10.480011 -5.083925 -1.799630 2.883098 8.056066 2.237916 0.000000 0.000000 0.000000
7.570228 66.554187 334.933508 -2.939291 2.918235 -29.493422 -0.068439 0.105270 29.464120 -0.006964 0.113299 -0.131778 8.955062 1.869008 -2.230999 0.000000 0.000000 0.000000 27.537905 29.777925 -16.990177 89.776989 10.610121 -2.651109 4.402816 18.106629 7.799528 11.708328 3.594754 -28.282022 0.000000 0.000000 0.000000 0.000000 0.000000 0.000000 29.213359 31.845167 2.819567 -148.323776 85.005325 107.885401 26.681564 16.064382 0.562252 3.409502 11.387420 56.369156 0.000000 0.000000 0.000000 0.000000 0.000000 0.000000 10.242210 -0.893329 31.930647 -5.412634 3.127512 -2.068293 -1.805038 -2.070141 -1.459892 0.000000 0.000000 0.000000 10.329975 3.200381 31.754970 -10.902755 -5.239749 -1.891309 2.183523 5.993248 2.950141 0.000000 0.000000 0.000000
7.691188 66.553191 335.020131 -2.830486 2.785809 -29.418329 -0.113943 0.112576 29.385361 0.003741 0.117696 -0.127275 8.541460 1.940641 -2.206649 0.000000 0.000000 0.000000 27.618664 30.201334 -17.285243 89.598812 10.948028 -2.527837 3.531899 16.873800 9.479235 9.911517 4.272675 -28.812873 0.000000 0.000000 0.000000 0.000000 0.000000 0.000000 28.365227 31.548024 2.825327 -128.538141 86.640772 90.416101 19.048480 14.576674 -7.144197 5.876910 11.416461 55.799356 0.000000 0.000000 0.000000 0.000000 0.000000 0.000000 9.511233 -0.575181 31.532464 -5.250596 1.556208 -1.645732 -2.279669 -0.945255 -1.560803 0.000000 0.000000 0.000000 10.225628 3.641373 31.632873 -11.374911 -5.638772 -1.960437 2.464803 6.029758 2.709338 0.000000 0.000000 0.000000
7.821940 66.569880 335.093436 -2.711533 2.655092 -29.280704 -0.158249 0.125988 29.244874 0.002612 0.122169 -0.123435 8.179262 2.046559 -2.204292 0.000000 0.000000 0.000000 27.626903 30.566757 -17.525079 88.426307 11.559556 -2.770019 5.353078 17.189174 9.558026 9.527391 8.440746 -39.256981 0.000000 0.000000 0.000000 0.000000 0.000000 0.000000 27.571701 31.368517 2.809906 105.492497 88.435425 -137.076906 4.812092 7.867305 -21.846691 22.851580 23.424139 81.542331 0.000000 0.000000 0.000000 0.000000 0.000000 0.000000 9.094852 -0.490763 31.270638 -5.130028 1.369940 -1.563763 -3.863794 -0.666931 -1.449289 0.000000 0.000000 0.000000 10.146899 4.179855 31.445014 -11.934578 -6.171034 -2.037761 2.771700 6.098777 2.366068 0.000000 0.000000 0.000000
7.995306 66.588339 335.191719 -2.522778 2.485752 -29.240567 -0.247259 0.139281 29.200505 -0.012702 0.139231 -0.119407 7.837410 2.232042 -2.240258 0.000000 0.000000 0.000000 27.652072 30.931343 -17.779193 87.753993 11.085218 -1.518822 8.645296 17.256760 9.915436 6.382277 10.915169 -45.044766 0.000000 0.000000 0.000000 0.000000 0.000000 0.000000 27.033974 31.350432 2.764007 71.645047 86.992551 -100.480268 0.783092 9.407492 -26.511393 16.878632 26.229991 81.830303 0.000000 0.000000 0.000000 0.000000 0.000000 0.000000 8.337526 -0.169366 30.933058 -4.940156 0.640714 -1.309503 -3.449884 -0.602340 -1.540505 0.000000 0.000000 0.000000 9.190619 3.817459 31.164060 -10.845172 -6.171546 -1.722867 2.640589 5.924292 1.956197 0.000000 0.000000 0.000000
8.112709 66.572339 335.257552 -2.411649 2.364252 -28.942630 -0.283260 0.159546 28.901076 -0.028603 0.153117 -0.116821 7.553548 2.286595 -2.225240 0.000000 0.000000 0.000000 27.811730 31.336711 -18.094693 87.209187 11.122562 -0.930182 11.038518 16.653272 11.377836 4.234391 12.031748 -47.368844 0.000000 0.000000 0.000000 0.000000 0.000000 0.000000 27.166685 31.908682 2.633791 75.504809 86.594800 -104.218032 4.213056 11.442445 -24.179009 19.232377 27.157394 93.192767 0.000000 0.000000 0.000000 0.000000 0.000000 0.000000 7.975467 -0.118257 30.535650 -4.884518 0.572331 -1.267922 -2.305111 -0.861807 -1.576191 0.000000 0.000000 0.000000 8.799742 3.775898 30.762932 -10.576647 -6.305213 -1.621424 2.632131 5.926572 1.905158 0.000000 0.000000 0.000000
